<?xml version="1.0" encoding="UTF-8"?>
<svg id="Layer_1" data-name="Layer 1" xmlns="http://www.w3.org/2000/svg" viewBox="0 0 1000 1000">
  <defs>
    <style>
      .cls-1 {
        fill: #fd5100;
      }

      .cls-2 {
        fill: #fff;
      }
    </style>
  </defs>
  <path class="cls-1" d="M.41,500C.41,125.31,125.31.41,500,.41s499.59,124.9,499.59,499.59-124.9,499.59-499.59,499.59S.41,874.69.41,500"/>
  <g>
    <path class="cls-2" d="M759.93,735.08c-13.77,32.85-56.02,44.74-84.98,24.15-61.69-43.86-112.81-99.98-158.31-159.27,1.52-.48,3.02-.94,4.5-1.39,11.09-3.44,21.57-6.69,30.47-9.88l1.39-.5c12.19-4.38,26.34-9.46,39.56-16.72,2.39,1.98,4.78,3.94,7.17,5.9,40.25,31.91,83.86,62.21,130.5,82.71,28.91,12.52,42.21,46.1,29.7,75.01Z"/>
    <g>
      <path class="cls-2" d="M794.41,287.31c-.15,34.12-31.49,60.71-65.16,55.5-75.23-11.91-138.78-21-200.22-7.73-6.67,1.44-13.31,3.14-19.94,5.13-6.91,2.08-13.8,4.47-20.71,7.2-5.61,2.22-11.21,4.67-16.83,7.35-12.06,5.77-24.15,12.66-36.35,20.8-4.89,3.26-9.81,6.74-14.74,10.42-2.37,1.77-4.76,3.6-7.14,5.47-4.38,3.26-8.98,6.58-13.77,9.87-4.94,3.4-10.1,6.77-15.42,10.05-41.05,25.32-92.18,45.17-136.38,26.95-25.58-10.83-41.04-35.49-42.07-62.79-.75-15.46,2.45-30.32,7.72-44.35,7.95-19.05,35.57-10,30.98,9.88-4.12,17.08-5.1,39.85,9.61,51.58,6.18,4.64,13.65,6.13,21.72,5.96,31.34-1.73,60.71-22.84,84.51-43.01,6.68-5.77,13.25-12.04,19.55-18.27,7.94-7.9,16.02-15.28,24.22-22.16,13.71-11.5,27.78-21.62,42.26-30.47h0c62.99-38.55,133.42-53.28,213.14-54.8,27.01-.77,53.27-.41,78.91-.1,31.37.39,56.49,26.14,56.1,57.52Z"/>
      <path class="cls-2" d="M514.05,500.29c-4.11.69-8.27,1.35-12.51,2.03-4.54.73-9.23,1.47-13.95,2.26-10.42,1.68-21.39,3.53-32.59,5.78-18.18-29.58-34.63-60.14-48.4-92.02,5.81-3.91,11.66-8.06,17.53-12.44l.17-.13.17-.13c2.01-1.58,4.03-3.13,6.04-4.64,24.59,35.59,52.94,68.53,83.53,99.29Z"/>
      <path class="cls-2" d="M616.3,522.37c-4.33,11.27-12.41,19.95-22.19,26.88-5.14,3.65-10.75,6.81-16.53,9.63-10.75,5.23-22.08,9.24-32.07,12.82-11.22,4.02-25.37,8.24-40.37,12.95-5.93,1.86-11.99,3.79-18.05,5.83-29.95,10.04-59.93,22.39-74.25,39.27-3.11,3.95-4.46,6.78-5.48,10.83-5.23,15.95-1.63,32.95,5.75,47.88,10.78,21.81,27.77,39.94,45.42,56.57,20.5,19.91,20.98,52.68,1.06,73.17-20.41,21.12-54.65,20.86-74.75-.54-2.37-2.56-5.18-5.36-7.49-7.92-8.32-9.04-16.03-18.48-23.24-28.6-35.94-50.1-54.19-113.63-26.46-171.98,21.69-47.45,70.17-67.4,118.8-78.51,6.3-1.44,12.59-2.72,18.83-3.91,8.56-1.62,17.01-3.04,25.21-4.36,13.46-2.25,26.5-4.15,39.37-6.54,6.38-1.18,12.72-2.48,19.05-4,.78-.2,1.55-.4,2.31-.6,6.88-1.8,12.9-3.69,18.39-6.63,1.27-.69,3.63-3.9,3.67-5.81.05-1.9-.13-4.19-.55-6.66-1.49-8.44-4.48-16.42-8.11-24.71-10.64-23.67-25.42-46.66-40.2-68.53-8.22-12.26-16.85-24.22-25.4-36.27h0c3.32-1.26,6.67-2.43,10.03-3.52,4.59-1.5,9.25-2.86,13.99-4.08,22.74,24.04,45.5,48.2,64.89,75.07,17.79,25.1,40.18,60.13,28.34,92.27Z"/>
      <circle class="cls-2" cx="377.48" cy="233.72" r="67.6"/>
    </g>
  </g>
</svg>